# xmcd CD database file generated by Grip 2.91
# 
# Track frame offsets:
#       150
#       13695
#       34646
#       62534
#       89460
#       100298
#       119102
#       128255
#       135517
#       151802
#       163828
#       175605
#       192817
#       204855
#       222711
#       238861
#       250409
#       270235
#       278222
#       291807
# 
# Disc length: 4035 seconds
# 
# Revision: 3
# Processed by: cddbd v1.4b41PL1 Copyright (c) Steve Scherf et al.
# Submitted via: Grip 2.91
# 
DISCID=1a0fc114
DTITLE=Tarnation - Gentle Creatures
DYEAR=1900
DGENRE=
TTITLE0=Game Of Broken Hearts
TTITLE1=Halfway To Madness
TTITLE2=The Well
TTITLE3=Big O Motel
TTITLE4=Tell Me It's Not So
TTITLE5=Two Wrongs Won't Make Things Right
TTITLE6=Lonely Nights
TTITLE7=Gentle Creatures
TTITLE8=Listen To The Wind
TTITLE9=The Hand
TTITLE10=Do You Fancy Me
TTITLE11=Yellow Birds
TTITLE12=Burn Again
TTITLE13=Stranger In The Mirror
TTITLE14=It's Not Easy
TTITLE15=Sweat And Blood
TTITLE16=The Ring
TTITLE17=Spankin' Potion No. 5
TTITLE18=They Took You Away Once Again
TTITLE19=Rancho Carne Humana
EXTD=
EXTT0=
EXTT1=
EXTT2=
EXTT3=
EXTT4=
EXTT5=
EXTT6=
EXTT7=
EXTT8=
EXTT9=
EXTT10=
EXTT11=
EXTT12=
EXTT13=
EXTT14=
EXTT15=
EXTT16=
EXTT17=
EXTT18=
EXTT19=
PLAYORDER=
